<svg xmlns="http://www.w3.org/2000/svg" xmlns:xlink="http://www.w3.org/1999/xlink" width="1500" zoomAndPan="magnify" viewBox="0 0 1125 824.249979" height="1099" preserveAspectRatio="xMidYMid meet" version="1.0"><defs><g/></defs><g fill="#0ca4a5" fill-opacity="1"><g transform="translate(171.536713, 424.229738)"><g><path d="M 43.25 -89.28125 L 43.25 0 L 10.46875 0 L 10.46875 -143.859375 L 43.25 -143.859375 L 100.4375 -54.578125 L 100.78125 -54.578125 L 100.78125 -143.859375 L 133.578125 -143.859375 L 133.578125 0 L 100.78125 0 L 43.59375 -89.28125 Z M 43.25 -89.28125 "/></g></g></g><g fill="#0ca4a5" fill-opacity="1"><g transform="translate(306.855812, 424.229738)"><g><path d="M 13.421875 -139.328125 C 17.023438 -142.929688 21.328125 -144.734375 26.328125 -144.734375 C 31.328125 -144.734375 35.628906 -142.929688 39.234375 -139.328125 C 42.835938 -135.722656 44.640625 -131.421875 44.640625 -126.421875 C 44.640625 -121.421875 42.835938 -117.117188 39.234375 -113.515625 C 35.628906 -109.910156 31.328125 -108.109375 26.328125 -108.109375 C 21.328125 -108.109375 17.023438 -109.910156 13.421875 -113.515625 C 9.816406 -117.117188 8.015625 -121.421875 8.015625 -126.421875 C 8.015625 -131.421875 9.816406 -135.722656 13.421875 -139.328125 Z M 10.46875 -89.453125 L 10.46875 0 L 41.328125 0 L 41.328125 -89.453125 Z M 10.46875 -89.453125 "/></g></g></g><g fill="#0ca4a5" fill-opacity="1"><g transform="translate(350.799612, 424.229738)"><g><path d="M 10.46875 0 L 10.46875 -89.453125 L 41.328125 -89.453125 L 41.328125 -76.546875 L 41.671875 -76.546875 C 41.910156 -77.015625 42.289062 -77.597656 42.8125 -78.296875 C 43.332031 -78.992188 44.460938 -80.210938 46.203125 -81.953125 C 47.953125 -83.703125 49.8125 -85.269531 51.78125 -86.65625 C 53.757812 -88.050781 56.316406 -89.300781 59.453125 -90.40625 C 62.597656 -91.507812 65.796875 -92.0625 69.046875 -92.0625 C 72.421875 -92.0625 75.734375 -91.597656 78.984375 -90.671875 C 82.242188 -89.742188 84.628906 -88.816406 86.140625 -87.890625 L 88.578125 -86.484375 L 75.671875 -60.328125 C 71.835938 -63.585938 66.492188 -65.21875 59.640625 -65.21875 C 55.921875 -65.21875 52.722656 -64.398438 50.046875 -62.765625 C 47.367188 -61.140625 45.476562 -59.164062 44.375 -56.84375 C 43.269531 -54.519531 42.484375 -52.539062 42.015625 -50.90625 C 41.554688 -49.28125 41.328125 -48.003906 41.328125 -47.078125 L 41.328125 0 Z M 10.46875 0 "/></g></g></g><g fill="#0ca4a5" fill-opacity="1"><g transform="translate(428.921961, 424.229738)"><g/></g></g><g fill="#0ca4a5" fill-opacity="1"><g transform="translate(467.808732, 424.229738)"><g><path d="M 63.46875 -146.46875 C 71.257812 -146.46875 78.875 -145.332031 86.3125 -143.0625 C 93.75 -140.800781 99.269531 -138.566406 102.875 -136.359375 L 108.109375 -132.875 L 94.859375 -106.71875 C 93.816406 -107.414062 92.363281 -108.316406 90.5 -109.421875 C 88.632812 -110.523438 85.144531 -112.003906 80.03125 -113.859375 C 74.914062 -115.722656 70.148438 -116.65625 65.734375 -116.65625 C 60.273438 -116.65625 56.0625 -115.492188 53.09375 -113.171875 C 50.132812 -110.847656 48.65625 -107.707031 48.65625 -103.75 C 48.65625 -101.769531 49.347656 -99.9375 50.734375 -98.25 C 52.128906 -96.570312 54.515625 -94.773438 57.890625 -92.859375 C 61.265625 -90.941406 64.226562 -89.398438 66.78125 -88.234375 C 69.34375 -87.066406 73.296875 -85.320312 78.640625 -83 C 87.941406 -79.050781 95.875 -73.675781 102.4375 -66.875 C 109.007812 -60.070312 112.296875 -52.367188 112.296875 -43.765625 C 112.296875 -35.515625 110.8125 -28.304688 107.84375 -22.140625 C 104.882812 -15.984375 100.816406 -11.160156 95.640625 -7.671875 C 90.472656 -4.179688 84.75 -1.597656 78.46875 0.078125 C 72.1875 1.765625 65.382812 2.609375 58.0625 2.609375 C 51.789062 2.609375 45.628906 1.96875 39.578125 0.6875 C 33.535156 -0.582031 28.476562 -2.175781 24.40625 -4.09375 C 20.34375 -6.007812 16.679688 -7.898438 13.421875 -9.765625 C 10.171875 -11.628906 7.789062 -13.195312 6.28125 -14.46875 L 4.015625 -16.390625 L 20.40625 -43.9375 C 21.800781 -42.78125 23.71875 -41.300781 26.15625 -39.5 C 28.59375 -37.695312 32.921875 -35.28125 39.140625 -32.25 C 45.359375 -29.226562 50.851562 -27.71875 55.625 -27.71875 C 69.457031 -27.71875 76.375 -32.425781 76.375 -41.84375 C 76.375 -43.820312 75.878906 -45.65625 74.890625 -47.34375 C 73.898438 -49.03125 72.15625 -50.710938 69.65625 -52.390625 C 67.15625 -54.078125 64.945312 -55.414062 63.03125 -56.40625 C 61.113281 -57.394531 57.972656 -58.90625 53.609375 -60.9375 C 49.253906 -62.976562 46.03125 -64.519531 43.9375 -65.5625 C 35.21875 -69.863281 28.472656 -75.238281 23.703125 -81.6875 C 18.941406 -88.144531 16.5625 -95.09375 16.5625 -102.53125 C 16.5625 -115.4375 21.328125 -125.984375 30.859375 -134.171875 C 40.390625 -142.367188 51.257812 -146.46875 63.46875 -146.46875 Z M 63.46875 -146.46875 "/></g></g></g><g fill="#0ca4a5" fill-opacity="1"><g transform="translate(576.27324, 424.229738)"><g><path d="M 10.46875 0 L 10.46875 -89.453125 L 41.328125 -89.453125 L 41.328125 -76.546875 L 41.671875 -76.546875 C 41.910156 -77.015625 42.289062 -77.597656 42.8125 -78.296875 C 43.332031 -78.992188 44.460938 -80.210938 46.203125 -81.953125 C 47.953125 -83.703125 49.8125 -85.269531 51.78125 -86.65625 C 53.757812 -88.050781 56.316406 -89.300781 59.453125 -90.40625 C 62.597656 -91.507812 65.796875 -92.0625 69.046875 -92.0625 C 72.421875 -92.0625 75.734375 -91.597656 78.984375 -90.671875 C 82.242188 -89.742188 84.628906 -88.816406 86.140625 -87.890625 L 88.578125 -86.484375 L 75.671875 -60.328125 C 71.835938 -63.585938 66.492188 -65.21875 59.640625 -65.21875 C 55.921875 -65.21875 52.722656 -64.398438 50.046875 -62.765625 C 47.367188 -61.140625 45.476562 -59.164062 44.375 -56.84375 C 43.269531 -54.519531 42.484375 -52.539062 42.015625 -50.90625 C 41.554688 -49.28125 41.328125 -48.003906 41.328125 -47.078125 L 41.328125 0 Z M 10.46875 0 "/></g></g></g><g fill="#0ca4a5" fill-opacity="1"><g transform="translate(654.395601, 424.229738)"><g><path d="M 18.921875 -10.640625 C 8.984375 -19.472656 4.015625 -30.804688 4.015625 -44.640625 C 4.015625 -58.472656 9.1875 -69.832031 19.53125 -78.71875 C 29.875 -87.613281 42.660156 -92.0625 57.890625 -92.0625 C 72.890625 -92.0625 85.53125 -87.585938 95.8125 -78.640625 C 106.101562 -69.691406 111.25 -58.359375 111.25 -44.640625 C 111.25 -30.921875 106.21875 -19.613281 96.15625 -10.71875 C 86.101562 -1.832031 73.347656 2.609375 57.890625 2.609375 C 41.847656 2.609375 28.859375 -1.804688 18.921875 -10.640625 Z M 42.8125 -59.796875 C 38.800781 -55.847656 36.796875 -50.789062 36.796875 -44.625 C 36.796875 -38.46875 38.710938 -33.441406 42.546875 -29.546875 C 46.378906 -25.660156 51.4375 -23.71875 57.71875 -23.71875 C 63.757812 -23.71875 68.726562 -25.691406 72.625 -29.640625 C 76.519531 -33.597656 78.46875 -38.597656 78.46875 -44.640625 C 78.46875 -50.796875 76.460938 -55.847656 72.453125 -59.796875 C 68.441406 -63.753906 63.53125 -65.734375 57.71875 -65.734375 C 51.789062 -65.734375 46.820312 -63.753906 42.8125 -59.796875 Z M 42.8125 -59.796875 "/></g></g></g><g fill="#0ca4a5" fill-opacity="1"><g transform="translate(760.941926, 424.229738)"><g><path d="M 39.578125 -89.453125 L 39.578125 -46.90625 C 39.578125 -38.070312 40.914062 -31.796875 43.59375 -28.078125 C 46.269531 -24.359375 50.800781 -22.5 57.1875 -22.5 C 63.582031 -22.5 68.117188 -24.359375 70.796875 -28.078125 C 73.472656 -31.796875 74.8125 -38.070312 74.8125 -46.90625 L 74.8125 -89.453125 L 105.671875 -89.453125 L 105.671875 -39.40625 C 105.671875 -24.53125 101.804688 -13.804688 94.078125 -7.234375 C 86.347656 -0.671875 74.050781 2.609375 57.1875 2.609375 C 40.332031 2.609375 28.039062 -0.671875 20.3125 -7.234375 C 12.582031 -13.804688 8.71875 -24.53125 8.71875 -39.40625 L 8.71875 -89.453125 Z M 39.578125 -89.453125 "/></g></g></g><g fill="#0ca4a5" fill-opacity="1"><g transform="translate(866.616363, 424.229738)"><g><path d="M 10.46875 0 L 10.46875 -89.453125 L 41.328125 -89.453125 L 41.328125 -76.546875 L 41.671875 -76.546875 C 41.910156 -77.015625 42.289062 -77.597656 42.8125 -78.296875 C 43.332031 -78.992188 44.460938 -80.210938 46.203125 -81.953125 C 47.953125 -83.703125 49.8125 -85.269531 51.78125 -86.65625 C 53.757812 -88.050781 56.316406 -89.300781 59.453125 -90.40625 C 62.597656 -91.507812 65.796875 -92.0625 69.046875 -92.0625 C 72.421875 -92.0625 75.734375 -91.597656 78.984375 -90.671875 C 82.242188 -89.742188 84.628906 -88.816406 86.140625 -87.890625 L 88.578125 -86.484375 L 75.671875 -60.328125 C 71.835938 -63.585938 66.492188 -65.21875 59.640625 -65.21875 C 55.921875 -65.21875 52.722656 -64.398438 50.046875 -62.765625 C 47.367188 -61.140625 45.476562 -59.164062 44.375 -56.84375 C 43.269531 -54.519531 42.484375 -52.539062 42.015625 -50.90625 C 41.554688 -49.28125 41.328125 -48.003906 41.328125 -47.078125 L 41.328125 0 Z M 10.46875 0 "/></g></g></g><g fill="#0ca4a5" fill-opacity="1"><g transform="translate(345.735705, 539.534759)"><g><path d="M 15.875 0 L 2.546875 0 C 2.179688 0 2 -0.1875 2 -0.5625 L 2 -2.921875 C 2 -3.296875 2.179688 -3.484375 2.546875 -3.484375 L 6.125 -3.484375 L 6.125 -29.859375 L 2.546875 -29.859375 C 2.179688 -29.859375 2 -30.046875 2 -30.421875 L 2 -32.78125 C 2 -33.15625 2.179688 -33.34375 2.546875 -33.34375 L 15.09375 -33.34375 C 20.226562 -33.34375 24.3125 -31.863281 27.34375 -28.90625 C 30.382812 -25.945312 31.90625 -21.882812 31.90625 -16.71875 C 31.90625 -11.550781 30.460938 -7.472656 27.578125 -4.484375 C 24.703125 -1.492188 20.800781 0 15.875 0 Z M 10.171875 -3.484375 L 14.765625 -3.484375 C 23.367188 -3.546875 27.671875 -7.925781 27.671875 -16.625 C 27.671875 -20.800781 26.5625 -24.050781 24.34375 -26.375 C 22.132812 -28.695312 18.894531 -29.859375 14.625 -29.859375 L 10.171875 -29.859375 Z M 10.171875 -3.484375 "/></g></g></g><g fill="#0ca4a5" fill-opacity="1"><g transform="translate(382.41899, 539.534759)"><g><path d="M 35.65625 0 L 25.171875 0 C 24.796875 0 24.609375 -0.1875 24.609375 -0.5625 L 24.609375 -2.921875 C 24.609375 -3.296875 24.796875 -3.484375 25.171875 -3.484375 L 28.421875 -3.484375 L 25.40625 -11.515625 L 12.4375 -11.515625 L 9.421875 -3.484375 L 12.671875 -3.484375 C 13.046875 -3.484375 13.234375 -3.296875 13.234375 -2.921875 L 13.234375 -0.5625 C 13.234375 -0.1875 13.046875 0 12.671875 0 L 2.234375 0 C 1.859375 0 1.671875 -0.1875 1.671875 -0.5625 L 1.671875 -2.921875 C 1.671875 -3.296875 1.859375 -3.484375 2.234375 -3.484375 L 5.34375 -3.484375 L 15.328125 -29.859375 L 12.8125 -29.859375 C 12.414062 -29.859375 12.21875 -30.046875 12.21875 -30.421875 L 12.21875 -32.78125 C 12.21875 -33.15625 12.414062 -33.34375 12.8125 -33.34375 L 19.125 -33.34375 C 19.875 -33.34375 20.441406 -33.1875 20.828125 -32.875 C 21.210938 -32.5625 21.546875 -32.050781 21.828125 -31.34375 L 32.5 -3.484375 L 35.65625 -3.484375 C 36.03125 -3.484375 36.21875 -3.296875 36.21875 -2.921875 L 36.21875 -0.5625 C 36.21875 -0.1875 36.03125 0 35.65625 0 Z M 24.140625 -14.71875 L 19 -28.515625 L 18.859375 -28.515625 L 13.65625 -14.71875 Z M 24.140625 -14.71875 "/></g></g></g><g fill="#0ca4a5" fill-opacity="1"><g transform="translate(423.792145, 539.534759)"><g><path d="M 22.203125 0 L 11.375 0 C 10.976562 0 10.78125 -0.203125 10.78125 -0.609375 L 10.78125 -2.875 C 10.78125 -3.28125 10.976562 -3.484375 11.375 -3.484375 L 14.90625 -3.484375 L 14.90625 -29.859375 L 6.125 -29.859375 L 6.125 -24.9375 C 6.125 -24.5 5.910156 -24.28125 5.484375 -24.28125 L 2.875 -24.28125 C 2.445312 -24.28125 2.234375 -24.5 2.234375 -24.9375 L 2.234375 -32.734375 C 2.234375 -33.140625 2.445312 -33.34375 2.875 -33.34375 L 30.875 -33.34375 C 31.3125 -33.34375 31.53125 -33.140625 31.53125 -32.734375 L 31.53125 -24.9375 C 31.53125 -24.5 31.3125 -24.28125 30.875 -24.28125 L 28.234375 -24.28125 C 27.828125 -24.28125 27.625 -24.5 27.625 -24.9375 L 27.625 -29.859375 L 18.953125 -29.859375 L 18.953125 -3.484375 L 22.203125 -3.484375 C 22.628906 -3.484375 22.84375 -3.28125 22.84375 -2.875 L 22.84375 -0.609375 C 22.84375 -0.203125 22.628906 0 22.203125 0 Z M 22.203125 0 "/></g></g></g><g fill="#0ca4a5" fill-opacity="1"><g transform="translate(459.87178, 539.534759)"><g><path d="M 35.65625 0 L 25.171875 0 C 24.796875 0 24.609375 -0.1875 24.609375 -0.5625 L 24.609375 -2.921875 C 24.609375 -3.296875 24.796875 -3.484375 25.171875 -3.484375 L 28.421875 -3.484375 L 25.40625 -11.515625 L 12.4375 -11.515625 L 9.421875 -3.484375 L 12.671875 -3.484375 C 13.046875 -3.484375 13.234375 -3.296875 13.234375 -2.921875 L 13.234375 -0.5625 C 13.234375 -0.1875 13.046875 0 12.671875 0 L 2.234375 0 C 1.859375 0 1.671875 -0.1875 1.671875 -0.5625 L 1.671875 -2.921875 C 1.671875 -3.296875 1.859375 -3.484375 2.234375 -3.484375 L 5.34375 -3.484375 L 15.328125 -29.859375 L 12.8125 -29.859375 C 12.414062 -29.859375 12.21875 -30.046875 12.21875 -30.421875 L 12.21875 -32.78125 C 12.21875 -33.15625 12.414062 -33.34375 12.8125 -33.34375 L 19.125 -33.34375 C 19.875 -33.34375 20.441406 -33.1875 20.828125 -32.875 C 21.210938 -32.5625 21.546875 -32.050781 21.828125 -31.34375 L 32.5 -3.484375 L 35.65625 -3.484375 C 36.03125 -3.484375 36.21875 -3.296875 36.21875 -2.921875 L 36.21875 -0.5625 C 36.21875 -0.1875 36.03125 0 35.65625 0 Z M 24.140625 -14.71875 L 19 -28.515625 L 18.859375 -28.515625 L 13.65625 -14.71875 Z M 24.140625 -14.71875 "/></g></g></g><g fill="#0ca4a5" fill-opacity="1"><g transform="translate(501.244932, 539.534759)"><g/></g></g><g fill="#0ca4a5" fill-opacity="1"><g transform="translate(518.100748, 539.534759)"><g><path d="M 35.65625 0 L 25.171875 0 C 24.796875 0 24.609375 -0.1875 24.609375 -0.5625 L 24.609375 -2.921875 C 24.609375 -3.296875 24.796875 -3.484375 25.171875 -3.484375 L 28.421875 -3.484375 L 25.40625 -11.515625 L 12.4375 -11.515625 L 9.421875 -3.484375 L 12.671875 -3.484375 C 13.046875 -3.484375 13.234375 -3.296875 13.234375 -2.921875 L 13.234375 -0.5625 C 13.234375 -0.1875 13.046875 0 12.671875 0 L 2.234375 0 C 1.859375 0 1.671875 -0.1875 1.671875 -0.5625 L 1.671875 -2.921875 C 1.671875 -3.296875 1.859375 -3.484375 2.234375 -3.484375 L 5.34375 -3.484375 L 15.328125 -29.859375 L 12.8125 -29.859375 C 12.414062 -29.859375 12.21875 -30.046875 12.21875 -30.421875 L 12.21875 -32.78125 C 12.21875 -33.15625 12.414062 -33.34375 12.8125 -33.34375 L 19.125 -33.34375 C 19.875 -33.34375 20.441406 -33.1875 20.828125 -32.875 C 21.210938 -32.5625 21.546875 -32.050781 21.828125 -31.34375 L 32.5 -3.484375 L 35.65625 -3.484375 C 36.03125 -3.484375 36.21875 -3.296875 36.21875 -2.921875 L 36.21875 -0.5625 C 36.21875 -0.1875 36.03125 0 35.65625 0 Z M 24.140625 -14.71875 L 19 -28.515625 L 18.859375 -28.515625 L 13.65625 -14.71875 Z M 24.140625 -14.71875 "/></g></g></g><g fill="#0ca4a5" fill-opacity="1"><g transform="translate(559.4739, 539.534759)"><g><path d="M 31.109375 0 L 28.609375 0 C 28.015625 0 27.546875 -0.113281 27.203125 -0.34375 C 26.867188 -0.582031 26.546875 -0.945312 26.234375 -1.4375 L 12.8125 -22.421875 L 10.5 -26.328125 L 10.40625 -26.328125 L 10.40625 -3.484375 L 13.984375 -3.484375 C 14.378906 -3.484375 14.578125 -3.296875 14.578125 -2.921875 L 14.578125 -0.5625 C 14.578125 -0.1875 14.378906 0 13.984375 0 L 2.828125 0 C 2.429688 0 2.234375 -0.1875 2.234375 -0.5625 L 2.234375 -2.921875 C 2.234375 -3.296875 2.429688 -3.484375 2.828125 -3.484375 L 6.359375 -3.484375 L 6.359375 -29.859375 L 2.828125 -29.859375 C 2.429688 -29.859375 2.234375 -30.046875 2.234375 -30.421875 L 2.234375 -32.78125 C 2.234375 -33.15625 2.429688 -33.34375 2.828125 -33.34375 L 9.328125 -33.34375 C 10.234375 -33.34375 11.023438 -32.816406 11.703125 -31.765625 L 24.9375 -11.046875 L 27.578125 -6.546875 L 27.671875 -6.546875 L 27.671875 -29.859375 L 24.09375 -29.859375 C 23.726562 -29.859375 23.546875 -30.046875 23.546875 -30.421875 L 23.546875 -32.78125 C 23.546875 -33.15625 23.726562 -33.34375 24.09375 -33.34375 L 35.296875 -33.34375 C 35.660156 -33.34375 35.84375 -33.15625 35.84375 -32.78125 L 35.84375 -30.421875 C 35.84375 -30.046875 35.660156 -29.859375 35.296875 -29.859375 L 31.71875 -29.859375 L 31.71875 -0.5625 C 31.71875 -0.1875 31.515625 0 31.109375 0 Z M 31.109375 0 "/></g></g></g><g fill="#0ca4a5" fill-opacity="1"><g transform="translate(599.871929, 539.534759)"><g><path d="M 35.65625 0 L 25.171875 0 C 24.796875 0 24.609375 -0.1875 24.609375 -0.5625 L 24.609375 -2.921875 C 24.609375 -3.296875 24.796875 -3.484375 25.171875 -3.484375 L 28.421875 -3.484375 L 25.40625 -11.515625 L 12.4375 -11.515625 L 9.421875 -3.484375 L 12.671875 -3.484375 C 13.046875 -3.484375 13.234375 -3.296875 13.234375 -2.921875 L 13.234375 -0.5625 C 13.234375 -0.1875 13.046875 0 12.671875 0 L 2.234375 0 C 1.859375 0 1.671875 -0.1875 1.671875 -0.5625 L 1.671875 -2.921875 C 1.671875 -3.296875 1.859375 -3.484375 2.234375 -3.484375 L 5.34375 -3.484375 L 15.328125 -29.859375 L 12.8125 -29.859375 C 12.414062 -29.859375 12.21875 -30.046875 12.21875 -30.421875 L 12.21875 -32.78125 C 12.21875 -33.15625 12.414062 -33.34375 12.8125 -33.34375 L 19.125 -33.34375 C 19.875 -33.34375 20.441406 -33.1875 20.828125 -32.875 C 21.210938 -32.5625 21.546875 -32.050781 21.828125 -31.34375 L 32.5 -3.484375 L 35.65625 -3.484375 C 36.03125 -3.484375 36.21875 -3.296875 36.21875 -2.921875 L 36.21875 -0.5625 C 36.21875 -0.1875 36.03125 0 35.65625 0 Z M 24.140625 -14.71875 L 19 -28.515625 L 18.859375 -28.515625 L 13.65625 -14.71875 Z M 24.140625 -14.71875 "/></g></g></g><g fill="#0ca4a5" fill-opacity="1"><g transform="translate(641.245093, 539.534759)"><g><path d="M 28.234375 0 L 2.828125 0 C 2.429688 0 2.234375 -0.1875 2.234375 -0.5625 L 2.234375 -2.921875 C 2.234375 -3.296875 2.429688 -3.484375 2.828125 -3.484375 L 6.359375 -3.484375 L 6.359375 -29.859375 L 2.828125 -29.859375 C 2.429688 -29.859375 2.234375 -30.046875 2.234375 -30.421875 L 2.234375 -32.78125 C 2.234375 -33.15625 2.429688 -33.34375 2.828125 -33.34375 L 13.9375 -33.34375 C 14.332031 -33.34375 14.53125 -33.140625 14.53125 -32.734375 L 14.53125 -30.46875 C 14.53125 -30.0625 14.332031 -29.859375 13.9375 -29.859375 L 10.40625 -29.859375 L 10.40625 -3.484375 L 25.171875 -3.484375 L 25.171875 -8.03125 C 25.171875 -8.40625 25.367188 -8.59375 25.765625 -8.59375 L 28.28125 -8.59375 C 28.65625 -8.59375 28.84375 -8.40625 28.84375 -8.03125 L 28.84375 -0.609375 C 28.84375 -0.203125 28.640625 0 28.234375 0 Z M 28.234375 0 "/></g></g></g><g fill="#0ca4a5" fill-opacity="1"><g transform="translate(674.677973, 539.534759)"><g><path d="M 23.21875 0 L 12.03125 0 C 11.65625 0 11.46875 -0.1875 11.46875 -0.5625 L 11.46875 -2.921875 C 11.46875 -3.296875 11.65625 -3.484375 12.03125 -3.484375 L 15.609375 -3.484375 L 15.609375 -13.421875 L 13.75 -16.625 C 9.71875 -23.78125 7.128906 -28.191406 5.984375 -29.859375 L 2.828125 -29.859375 C 2.429688 -29.859375 2.234375 -30.046875 2.234375 -30.421875 L 2.234375 -32.78125 C 2.234375 -33.15625 2.429688 -33.34375 2.828125 -33.34375 L 13.28125 -33.34375 C 13.65625 -33.34375 13.84375 -33.15625 13.84375 -32.78125 L 13.84375 -30.421875 C 13.84375 -30.046875 13.65625 -29.859375 13.28125 -29.859375 L 10.21875 -29.859375 L 17.5 -16.953125 L 17.78125 -16.953125 L 25.03125 -29.859375 L 21.96875 -29.859375 C 21.59375 -29.859375 21.40625 -30.046875 21.40625 -30.421875 L 21.40625 -32.78125 C 21.40625 -33.15625 21.59375 -33.34375 21.96875 -33.34375 L 32.453125 -33.34375 C 32.828125 -33.34375 33.015625 -33.15625 33.015625 -32.78125 L 33.015625 -30.421875 C 33.015625 -30.046875 32.828125 -29.859375 32.453125 -29.859375 L 29.25 -29.859375 C 27.738281 -27.628906 25.765625 -24.347656 23.328125 -20.015625 C 20.898438 -15.679688 19.671875 -13.5 19.640625 -13.46875 L 19.640625 -3.484375 L 23.21875 -3.484375 C 23.59375 -3.484375 23.78125 -3.296875 23.78125 -2.921875 L 23.78125 -0.5625 C 23.78125 -0.1875 23.59375 0 23.21875 0 Z M 23.21875 0 "/></g></g></g><g fill="#0ca4a5" fill-opacity="1"><g transform="translate(712.243512, 539.534759)"><g><path d="M 5.4375 0 L 2.828125 0 C 2.429688 0 2.234375 -0.1875 2.234375 -0.5625 L 2.234375 -11.421875 C 2.234375 -11.828125 2.429688 -12.03125 2.828125 -12.03125 L 5.765625 -12.03125 C 6.128906 -12.03125 6.3125 -11.828125 6.3125 -11.421875 L 6.3125 -10.453125 C 6.3125 -9.859375 6.664062 -9.070312 7.375 -8.09375 C 8.09375 -7.125 8.804688 -6.328125 9.515625 -5.703125 C 10.234375 -5.085938 11.1875 -4.554688 12.375 -4.109375 C 13.5625 -3.660156 14.851562 -3.4375 16.25 -3.4375 C 18.632812 -3.4375 20.5 -3.929688 21.84375 -4.921875 C 23.195312 -5.910156 23.875 -7.289062 23.875 -9.0625 C 23.875 -10.082031 23.492188 -10.953125 22.734375 -11.671875 C 21.972656 -12.398438 20.988281 -12.984375 19.78125 -13.421875 C 18.570312 -13.859375 17.234375 -14.257812 15.765625 -14.625 C 14.296875 -15 12.820312 -15.425781 11.34375 -15.90625 C 9.875 -16.382812 8.535156 -16.957031 7.328125 -17.625 C 6.128906 -18.289062 5.148438 -19.21875 4.390625 -20.40625 C 3.628906 -21.601562 3.25 -23.003906 3.25 -24.609375 C 3.25 -27.210938 4.226562 -29.363281 6.1875 -31.0625 C 8.15625 -32.769531 10.796875 -33.625 14.109375 -33.625 C 18.296875 -33.625 21.363281 -32.398438 23.3125 -29.953125 L 23.21875 -32.828125 C 23.21875 -33.203125 23.421875 -33.390625 23.828125 -33.390625 L 26.421875 -33.390625 C 26.796875 -33.390625 26.984375 -33.203125 26.984375 -32.828125 L 26.984375 -22.703125 C 26.984375 -22.335938 26.796875 -22.15625 26.421875 -22.15625 L 23.5 -22.15625 C 23.125 -22.15625 22.9375 -22.335938 22.9375 -22.703125 L 22.9375 -24.015625 C 22.9375 -25.273438 22.222656 -26.554688 20.796875 -27.859375 C 19.378906 -29.160156 17.289062 -29.8125 14.53125 -29.8125 C 12.488281 -29.8125 10.835938 -29.320312 9.578125 -28.34375 C 8.328125 -27.375 7.703125 -26.128906 7.703125 -24.609375 C 7.703125 -23.523438 8.085938 -22.597656 8.859375 -21.828125 C 9.640625 -21.054688 10.648438 -20.4375 11.890625 -19.96875 C 13.128906 -19.5 14.488281 -19.070312 15.96875 -18.6875 C 17.457031 -18.300781 18.941406 -17.875 20.421875 -17.40625 C 21.910156 -16.945312 23.273438 -16.390625 24.515625 -15.734375 C 25.753906 -15.085938 26.757812 -14.195312 27.53125 -13.0625 C 28.3125 -11.9375 28.703125 -10.601562 28.703125 -9.0625 C 28.703125 -6.332031 27.722656 -4.082031 25.765625 -2.3125 C 23.816406 -0.550781 20.910156 0.328125 17.046875 0.328125 C 14.191406 0.328125 11.835938 -0.242188 9.984375 -1.390625 C 8.128906 -2.535156 6.78125 -3.773438 5.9375 -5.109375 L 5.984375 -0.5625 C 5.984375 -0.1875 5.800781 0 5.4375 0 Z M 5.4375 0 "/></g></g></g><g fill="#0ca4a5" fill-opacity="1"><g transform="translate(745.490663, 539.534759)"><g><path d="M 22.203125 0 L 11.375 0 C 10.976562 0 10.78125 -0.203125 10.78125 -0.609375 L 10.78125 -2.875 C 10.78125 -3.28125 10.976562 -3.484375 11.375 -3.484375 L 14.90625 -3.484375 L 14.90625 -29.859375 L 6.125 -29.859375 L 6.125 -24.9375 C 6.125 -24.5 5.910156 -24.28125 5.484375 -24.28125 L 2.875 -24.28125 C 2.445312 -24.28125 2.234375 -24.5 2.234375 -24.9375 L 2.234375 -32.734375 C 2.234375 -33.140625 2.445312 -33.34375 2.875 -33.34375 L 30.875 -33.34375 C 31.3125 -33.34375 31.53125 -33.140625 31.53125 -32.734375 L 31.53125 -24.9375 C 31.53125 -24.5 31.3125 -24.28125 30.875 -24.28125 L 28.234375 -24.28125 C 27.828125 -24.28125 27.625 -24.5 27.625 -24.9375 L 27.625 -29.859375 L 18.953125 -29.859375 L 18.953125 -3.484375 L 22.203125 -3.484375 C 22.628906 -3.484375 22.84375 -3.28125 22.84375 -2.875 L 22.84375 -0.609375 C 22.84375 -0.203125 22.628906 0 22.203125 0 Z M 22.203125 0 "/></g></g></g></svg>