<svg xmlns="http://www.w3.org/2000/svg" xmlns:xlink="http://www.w3.org/1999/xlink" width="1000" zoomAndPan="magnify" viewBox="0 0 375 374.999991" height="500" preserveAspectRatio="xMidYMid meet" version="1.0"><defs><g/></defs><g fill="#0ca4a5" fill-opacity="1"><g transform="translate(37.500002, 160.357312)"><g><path d="M 17.15625 -35.40625 L 17.15625 0 L 4.15625 0 L 4.15625 -57.046875 L 17.15625 -57.046875 L 39.828125 -21.640625 L 39.96875 -21.640625 L 39.96875 -57.046875 L 52.96875 -57.046875 L 52.96875 0 L 39.96875 0 L 17.28125 -35.40625 Z M 17.15625 -35.40625 "/></g></g></g><g fill="#0ca4a5" fill-opacity="1"><g transform="translate(91.168057, 160.357312)"><g><path d="M 5.328125 -55.25 C 6.753906 -56.6875 8.457031 -57.40625 10.4375 -57.40625 C 12.425781 -57.40625 14.132812 -56.6875 15.5625 -55.25 C 16.988281 -53.820312 17.703125 -52.117188 17.703125 -50.140625 C 17.703125 -48.160156 16.988281 -46.453125 15.5625 -45.015625 C 14.132812 -43.585938 12.425781 -42.875 10.4375 -42.875 C 8.457031 -42.875 6.753906 -43.585938 5.328125 -45.015625 C 3.898438 -46.453125 3.1875 -48.160156 3.1875 -50.140625 C 3.1875 -52.117188 3.898438 -53.820312 5.328125 -55.25 Z M 4.15625 -35.484375 L 4.15625 0 L 16.390625 0 L 16.390625 -35.484375 Z M 4.15625 -35.484375 "/></g></g></g><g fill="#0ca4a5" fill-opacity="1"><g transform="translate(108.596342, 160.357312)"><g><path d="M 4.15625 0 L 4.15625 -35.484375 L 16.390625 -35.484375 L 16.390625 -30.359375 L 16.53125 -30.359375 C 16.625 -30.546875 16.769531 -30.773438 16.96875 -31.046875 C 17.175781 -31.328125 17.625 -31.8125 18.3125 -32.5 C 19.007812 -33.195312 19.75 -33.820312 20.53125 -34.375 C 21.320312 -34.925781 22.335938 -35.421875 23.578125 -35.859375 C 24.828125 -36.296875 26.097656 -36.515625 27.390625 -36.515625 C 28.722656 -36.515625 30.035156 -36.328125 31.328125 -35.953125 C 32.617188 -35.585938 33.5625 -35.222656 34.15625 -34.859375 L 35.125 -34.296875 L 30.015625 -23.921875 C 28.492188 -25.210938 26.375 -25.859375 23.65625 -25.859375 C 22.175781 -25.859375 20.90625 -25.535156 19.84375 -24.890625 C 18.78125 -24.242188 18.03125 -23.457031 17.59375 -22.53125 C 17.15625 -21.613281 16.84375 -20.832031 16.65625 -20.1875 C 16.476562 -19.539062 16.390625 -19.035156 16.390625 -18.671875 L 16.390625 0 Z M 4.15625 0 "/></g></g></g><g fill="#0ca4a5" fill-opacity="1"><g transform="translate(37.500002, 226.059127)"><g><path d="M 25.171875 -58.09375 C 28.265625 -58.09375 31.285156 -57.640625 34.234375 -56.734375 C 37.179688 -55.835938 39.367188 -54.953125 40.796875 -54.078125 L 42.875 -52.703125 L 37.625 -42.328125 C 37.207031 -42.597656 36.628906 -42.953125 35.890625 -43.390625 C 35.148438 -43.828125 33.765625 -44.414062 31.734375 -45.15625 C 29.710938 -45.894531 27.828125 -46.265625 26.078125 -46.265625 C 23.910156 -46.265625 22.238281 -45.800781 21.0625 -44.875 C 19.882812 -43.957031 19.296875 -42.710938 19.296875 -41.140625 C 19.296875 -40.359375 19.570312 -39.632812 20.125 -38.96875 C 20.675781 -38.300781 21.617188 -37.585938 22.953125 -36.828125 C 24.296875 -36.066406 25.472656 -35.453125 26.484375 -34.984375 C 27.503906 -34.523438 29.070312 -33.835938 31.1875 -32.921875 C 34.875 -31.347656 38.019531 -29.210938 40.625 -26.515625 C 43.226562 -23.816406 44.53125 -20.765625 44.53125 -17.359375 C 44.53125 -14.085938 43.941406 -11.226562 42.765625 -8.78125 C 41.597656 -6.34375 39.988281 -4.429688 37.9375 -3.046875 C 35.882812 -1.660156 33.613281 -0.632812 31.125 0.03125 C 28.632812 0.695312 25.9375 1.03125 23.03125 1.03125 C 20.539062 1.03125 18.097656 0.773438 15.703125 0.265625 C 13.304688 -0.234375 11.300781 -0.863281 9.6875 -1.625 C 8.070312 -2.382812 6.617188 -3.132812 5.328125 -3.875 C 4.035156 -4.613281 3.085938 -5.234375 2.484375 -5.734375 L 1.59375 -6.5 L 8.09375 -17.421875 C 8.644531 -16.960938 9.40625 -16.375 10.375 -15.65625 C 11.34375 -14.945312 13.054688 -13.992188 15.515625 -12.796875 C 17.984375 -11.597656 20.164062 -11 22.0625 -11 C 27.550781 -11 30.296875 -12.863281 30.296875 -16.59375 C 30.296875 -17.375 30.097656 -18.097656 29.703125 -18.765625 C 29.304688 -19.441406 28.613281 -20.113281 27.625 -20.78125 C 26.632812 -21.445312 25.757812 -21.972656 25 -22.359375 C 24.238281 -22.753906 22.992188 -23.351562 21.265625 -24.15625 C 19.535156 -24.96875 18.253906 -25.582031 17.421875 -26 C 13.960938 -27.707031 11.285156 -29.835938 9.390625 -32.390625 C 7.503906 -34.953125 6.5625 -37.707031 6.5625 -40.65625 C 6.5625 -45.78125 8.453125 -49.96875 12.234375 -53.21875 C 16.015625 -56.46875 20.328125 -58.09375 25.171875 -58.09375 Z M 25.171875 -58.09375 "/></g></g></g><g fill="#0ca4a5" fill-opacity="1"><g transform="translate(80.51744, 226.059127)"><g><path d="M 4.15625 0 L 4.15625 -35.484375 L 16.390625 -35.484375 L 16.390625 -30.359375 L 16.53125 -30.359375 C 16.625 -30.546875 16.769531 -30.773438 16.96875 -31.046875 C 17.175781 -31.328125 17.625 -31.8125 18.3125 -32.5 C 19.007812 -33.195312 19.75 -33.820312 20.53125 -34.375 C 21.320312 -34.925781 22.335938 -35.421875 23.578125 -35.859375 C 24.828125 -36.296875 26.097656 -36.515625 27.390625 -36.515625 C 28.722656 -36.515625 30.035156 -36.328125 31.328125 -35.953125 C 32.617188 -35.585938 33.5625 -35.222656 34.15625 -34.859375 L 35.125 -34.296875 L 30.015625 -23.921875 C 28.492188 -25.210938 26.375 -25.859375 23.65625 -25.859375 C 22.175781 -25.859375 20.90625 -25.535156 19.84375 -24.890625 C 18.78125 -24.242188 18.03125 -23.457031 17.59375 -22.53125 C 17.15625 -21.613281 16.84375 -20.832031 16.65625 -20.1875 C 16.476562 -19.539062 16.390625 -19.035156 16.390625 -18.671875 L 16.390625 0 Z M 4.15625 0 "/></g></g></g><g fill="#0ca4a5" fill-opacity="1"><g transform="translate(111.501056, 226.059127)"><g><path d="M 7.5 -4.21875 C 3.5625 -7.71875 1.59375 -12.210938 1.59375 -17.703125 C 1.59375 -23.191406 3.644531 -27.695312 7.75 -31.21875 C 11.851562 -34.75 16.921875 -36.515625 22.953125 -36.515625 C 28.898438 -36.515625 33.914062 -34.738281 38 -31.1875 C 42.082031 -27.632812 44.125 -23.140625 44.125 -17.703125 C 44.125 -12.265625 42.128906 -7.78125 38.140625 -4.25 C 34.148438 -0.726562 29.085938 1.03125 22.953125 1.03125 C 16.597656 1.03125 11.445312 -0.71875 7.5 -4.21875 Z M 16.96875 -23.71875 C 15.382812 -22.15625 14.59375 -20.148438 14.59375 -17.703125 C 14.59375 -15.253906 15.351562 -13.257812 16.875 -11.71875 C 18.394531 -10.175781 20.398438 -9.40625 22.890625 -9.40625 C 25.285156 -9.40625 27.253906 -10.1875 28.796875 -11.75 C 30.347656 -13.320312 31.125 -15.304688 31.125 -17.703125 C 31.125 -20.148438 30.328125 -22.15625 28.734375 -23.71875 C 27.140625 -25.289062 25.191406 -26.078125 22.890625 -26.078125 C 20.535156 -26.078125 18.5625 -25.289062 16.96875 -23.71875 Z M 16.96875 -23.71875 "/></g></g></g><g fill="#0ca4a5" fill-opacity="1"><g transform="translate(153.757733, 226.059127)"><g><path d="M 15.703125 -35.484375 L 15.703125 -18.609375 C 15.703125 -15.097656 16.226562 -12.601562 17.28125 -11.125 C 18.34375 -9.65625 20.140625 -8.921875 22.671875 -8.921875 C 25.210938 -8.921875 27.015625 -9.65625 28.078125 -11.125 C 29.140625 -12.601562 29.671875 -15.097656 29.671875 -18.609375 L 29.671875 -35.484375 L 41.90625 -35.484375 L 41.90625 -15.625 C 41.90625 -9.726562 40.367188 -5.476562 37.296875 -2.875 C 34.234375 -0.269531 29.359375 1.03125 22.671875 1.03125 C 15.992188 1.03125 11.117188 -0.269531 8.046875 -2.875 C 4.984375 -5.476562 3.453125 -9.726562 3.453125 -15.625 L 3.453125 -35.484375 Z M 15.703125 -35.484375 "/></g></g></g><g fill="#0ca4a5" fill-opacity="1"><g transform="translate(195.668611, 226.059127)"><g><path d="M 4.15625 0 L 4.15625 -35.484375 L 16.390625 -35.484375 L 16.390625 -30.359375 L 16.53125 -30.359375 C 16.625 -30.546875 16.769531 -30.773438 16.96875 -31.046875 C 17.175781 -31.328125 17.625 -31.8125 18.3125 -32.5 C 19.007812 -33.195312 19.75 -33.820312 20.53125 -34.375 C 21.320312 -34.925781 22.335938 -35.421875 23.578125 -35.859375 C 24.828125 -36.296875 26.097656 -36.515625 27.390625 -36.515625 C 28.722656 -36.515625 30.035156 -36.328125 31.328125 -35.953125 C 32.617188 -35.585938 33.5625 -35.222656 34.15625 -34.859375 L 35.125 -34.296875 L 30.015625 -23.921875 C 28.492188 -25.210938 26.375 -25.859375 23.65625 -25.859375 C 22.175781 -25.859375 20.90625 -25.535156 19.84375 -24.890625 C 18.78125 -24.242188 18.03125 -23.457031 17.59375 -22.53125 C 17.15625 -21.613281 16.84375 -20.832031 16.65625 -20.1875 C 16.476562 -19.539062 16.390625 -19.035156 16.390625 -18.671875 L 16.390625 0 Z M 4.15625 0 "/></g></g></g><g fill="#0ca4a5" fill-opacity="1"><g transform="translate(37.500002, 270.983202)"><g><path d="M 5.234375 0 L 0.84375 0 C 0.71875 0 0.65625 -0.0625 0.65625 -0.1875 L 0.65625 -0.96875 C 0.65625 -1.082031 0.71875 -1.140625 0.84375 -1.140625 L 2.015625 -1.140625 L 2.015625 -9.84375 L 0.84375 -9.84375 C 0.71875 -9.84375 0.65625 -9.90625 0.65625 -10.03125 L 0.65625 -10.8125 C 0.65625 -10.9375 0.71875 -11 0.84375 -11 L 4.96875 -11 C 6.664062 -11 8.015625 -10.507812 9.015625 -9.53125 C 10.015625 -8.550781 10.515625 -7.207031 10.515625 -5.5 C 10.515625 -3.800781 10.039062 -2.457031 9.09375 -1.46875 C 8.144531 -0.488281 6.859375 0 5.234375 0 Z M 3.359375 -1.140625 L 4.875 -1.140625 C 7.707031 -1.160156 9.125 -2.609375 9.125 -5.484375 C 9.125 -6.859375 8.757812 -7.925781 8.03125 -8.6875 C 7.300781 -9.457031 6.234375 -9.84375 4.828125 -9.84375 L 3.359375 -9.84375 Z M 3.359375 -1.140625 "/></g></g></g><g fill="#0ca4a5" fill-opacity="1"><g transform="translate(49.597991, 270.983202)"><g><path d="M 11.765625 0 L 8.296875 0 C 8.171875 0 8.109375 -0.0625 8.109375 -0.1875 L 8.109375 -0.96875 C 8.109375 -1.082031 8.171875 -1.140625 8.296875 -1.140625 L 9.375 -1.140625 L 8.375 -3.796875 L 4.109375 -3.796875 L 3.109375 -1.140625 L 4.1875 -1.140625 C 4.300781 -1.140625 4.359375 -1.082031 4.359375 -0.96875 L 4.359375 -0.1875 C 4.359375 -0.0625 4.300781 0 4.1875 0 L 0.734375 0 C 0.609375 0 0.546875 -0.0625 0.546875 -0.1875 L 0.546875 -0.96875 C 0.546875 -1.082031 0.609375 -1.140625 0.734375 -1.140625 L 1.765625 -1.140625 L 5.046875 -9.84375 L 4.21875 -9.84375 C 4.09375 -9.84375 4.03125 -9.90625 4.03125 -10.03125 L 4.03125 -10.8125 C 4.03125 -10.9375 4.09375 -11 4.21875 -11 L 6.3125 -11 C 6.550781 -11 6.734375 -10.945312 6.859375 -10.84375 C 6.992188 -10.738281 7.109375 -10.566406 7.203125 -10.328125 L 10.71875 -1.140625 L 11.765625 -1.140625 C 11.878906 -1.140625 11.9375 -1.082031 11.9375 -0.96875 L 11.9375 -0.1875 C 11.9375 -0.0625 11.878906 0 11.765625 0 Z M 7.96875 -4.859375 L 6.265625 -9.40625 L 6.21875 -9.40625 L 4.5 -4.859375 Z M 7.96875 -4.859375 "/></g></g></g><g fill="#0ca4a5" fill-opacity="1"><g transform="translate(63.242681, 270.983202)"><g><path d="M 7.3125 0 L 3.75 0 C 3.613281 0 3.546875 -0.0664062 3.546875 -0.203125 L 3.546875 -0.953125 C 3.546875 -1.078125 3.613281 -1.140625 3.75 -1.140625 L 4.921875 -1.140625 L 4.921875 -9.84375 L 2.015625 -9.84375 L 2.015625 -8.21875 C 2.015625 -8.082031 1.945312 -8.015625 1.8125 -8.015625 L 0.953125 -8.015625 C 0.804688 -8.015625 0.734375 -8.082031 0.734375 -8.21875 L 0.734375 -10.796875 C 0.734375 -10.929688 0.804688 -11 0.953125 -11 L 10.1875 -11 C 10.320312 -11 10.390625 -10.929688 10.390625 -10.796875 L 10.390625 -8.21875 C 10.390625 -8.082031 10.320312 -8.015625 10.1875 -8.015625 L 9.3125 -8.015625 C 9.175781 -8.015625 9.109375 -8.082031 9.109375 -8.21875 L 9.109375 -9.84375 L 6.25 -9.84375 L 6.25 -1.140625 L 7.3125 -1.140625 C 7.457031 -1.140625 7.53125 -1.078125 7.53125 -0.953125 L 7.53125 -0.203125 C 7.53125 -0.0664062 7.457031 0 7.3125 0 Z M 7.3125 0 "/></g></g></g><g fill="#0ca4a5" fill-opacity="1"><g transform="translate(75.141587, 270.983202)"><g><path d="M 11.765625 0 L 8.296875 0 C 8.171875 0 8.109375 -0.0625 8.109375 -0.1875 L 8.109375 -0.96875 C 8.109375 -1.082031 8.171875 -1.140625 8.296875 -1.140625 L 9.375 -1.140625 L 8.375 -3.796875 L 4.109375 -3.796875 L 3.109375 -1.140625 L 4.1875 -1.140625 C 4.300781 -1.140625 4.359375 -1.082031 4.359375 -0.96875 L 4.359375 -0.1875 C 4.359375 -0.0625 4.300781 0 4.1875 0 L 0.734375 0 C 0.609375 0 0.546875 -0.0625 0.546875 -0.1875 L 0.546875 -0.96875 C 0.546875 -1.082031 0.609375 -1.140625 0.734375 -1.140625 L 1.765625 -1.140625 L 5.046875 -9.84375 L 4.21875 -9.84375 C 4.09375 -9.84375 4.03125 -9.90625 4.03125 -10.03125 L 4.03125 -10.8125 C 4.03125 -10.9375 4.09375 -11 4.21875 -11 L 6.3125 -11 C 6.550781 -11 6.734375 -10.945312 6.859375 -10.84375 C 6.992188 -10.738281 7.109375 -10.566406 7.203125 -10.328125 L 10.71875 -1.140625 L 11.765625 -1.140625 C 11.878906 -1.140625 11.9375 -1.082031 11.9375 -0.96875 L 11.9375 -0.1875 C 11.9375 -0.0625 11.878906 0 11.765625 0 Z M 7.96875 -4.859375 L 6.265625 -9.40625 L 6.21875 -9.40625 L 4.5 -4.859375 Z M 7.96875 -4.859375 "/></g></g></g><g fill="#0ca4a5" fill-opacity="1"><g transform="translate(88.786279, 270.983202)"><g/></g></g><g fill="#0ca4a5" fill-opacity="1"><g transform="translate(94.345233, 270.983202)"><g><path d="M 11.765625 0 L 8.296875 0 C 8.171875 0 8.109375 -0.0625 8.109375 -0.1875 L 8.109375 -0.96875 C 8.109375 -1.082031 8.171875 -1.140625 8.296875 -1.140625 L 9.375 -1.140625 L 8.375 -3.796875 L 4.109375 -3.796875 L 3.109375 -1.140625 L 4.1875 -1.140625 C 4.300781 -1.140625 4.359375 -1.082031 4.359375 -0.96875 L 4.359375 -0.1875 C 4.359375 -0.0625 4.300781 0 4.1875 0 L 0.734375 0 C 0.609375 0 0.546875 -0.0625 0.546875 -0.1875 L 0.546875 -0.96875 C 0.546875 -1.082031 0.609375 -1.140625 0.734375 -1.140625 L 1.765625 -1.140625 L 5.046875 -9.84375 L 4.21875 -9.84375 C 4.09375 -9.84375 4.03125 -9.90625 4.03125 -10.03125 L 4.03125 -10.8125 C 4.03125 -10.9375 4.09375 -11 4.21875 -11 L 6.3125 -11 C 6.550781 -11 6.734375 -10.945312 6.859375 -10.84375 C 6.992188 -10.738281 7.109375 -10.566406 7.203125 -10.328125 L 10.71875 -1.140625 L 11.765625 -1.140625 C 11.878906 -1.140625 11.9375 -1.082031 11.9375 -0.96875 L 11.9375 -0.1875 C 11.9375 -0.0625 11.878906 0 11.765625 0 Z M 7.96875 -4.859375 L 6.265625 -9.40625 L 6.21875 -9.40625 L 4.5 -4.859375 Z M 7.96875 -4.859375 "/></g></g></g><g fill="#0ca4a5" fill-opacity="1"><g transform="translate(107.989925, 270.983202)"><g><path d="M 10.265625 0 L 9.4375 0 C 9.238281 0 9.082031 -0.0351562 8.96875 -0.109375 C 8.851562 -0.191406 8.75 -0.3125 8.65625 -0.46875 L 4.21875 -7.390625 L 3.453125 -8.6875 L 3.4375 -8.6875 L 3.4375 -1.140625 L 4.609375 -1.140625 C 4.742188 -1.140625 4.8125 -1.082031 4.8125 -0.96875 L 4.8125 -0.1875 C 4.8125 -0.0625 4.742188 0 4.609375 0 L 0.9375 0 C 0.800781 0 0.734375 -0.0625 0.734375 -0.1875 L 0.734375 -0.96875 C 0.734375 -1.082031 0.800781 -1.140625 0.9375 -1.140625 L 2.09375 -1.140625 L 2.09375 -9.84375 L 0.9375 -9.84375 C 0.800781 -9.84375 0.734375 -9.90625 0.734375 -10.03125 L 0.734375 -10.8125 C 0.734375 -10.9375 0.800781 -11 0.9375 -11 L 3.078125 -11 C 3.367188 -11 3.628906 -10.820312 3.859375 -10.46875 L 8.21875 -3.640625 L 9.09375 -2.15625 L 9.125 -2.15625 L 9.125 -9.84375 L 7.953125 -9.84375 C 7.828125 -9.84375 7.765625 -9.90625 7.765625 -10.03125 L 7.765625 -10.8125 C 7.765625 -10.9375 7.828125 -11 7.953125 -11 L 11.640625 -11 C 11.765625 -11 11.828125 -10.9375 11.828125 -10.8125 L 11.828125 -10.03125 C 11.828125 -9.90625 11.765625 -9.84375 11.640625 -9.84375 L 10.453125 -9.84375 L 10.453125 -0.1875 C 10.453125 -0.0625 10.390625 0 10.265625 0 Z M 10.265625 0 "/></g></g></g><g fill="#0ca4a5" fill-opacity="1"><g transform="translate(121.313031, 270.983202)"><g><path d="M 11.765625 0 L 8.296875 0 C 8.171875 0 8.109375 -0.0625 8.109375 -0.1875 L 8.109375 -0.96875 C 8.109375 -1.082031 8.171875 -1.140625 8.296875 -1.140625 L 9.375 -1.140625 L 8.375 -3.796875 L 4.109375 -3.796875 L 3.109375 -1.140625 L 4.1875 -1.140625 C 4.300781 -1.140625 4.359375 -1.082031 4.359375 -0.96875 L 4.359375 -0.1875 C 4.359375 -0.0625 4.300781 0 4.1875 0 L 0.734375 0 C 0.609375 0 0.546875 -0.0625 0.546875 -0.1875 L 0.546875 -0.96875 C 0.546875 -1.082031 0.609375 -1.140625 0.734375 -1.140625 L 1.765625 -1.140625 L 5.046875 -9.84375 L 4.21875 -9.84375 C 4.09375 -9.84375 4.03125 -9.90625 4.03125 -10.03125 L 4.03125 -10.8125 C 4.03125 -10.9375 4.09375 -11 4.21875 -11 L 6.3125 -11 C 6.550781 -11 6.734375 -10.945312 6.859375 -10.84375 C 6.992188 -10.738281 7.109375 -10.566406 7.203125 -10.328125 L 10.71875 -1.140625 L 11.765625 -1.140625 C 11.878906 -1.140625 11.9375 -1.082031 11.9375 -0.96875 L 11.9375 -0.1875 C 11.9375 -0.0625 11.878906 0 11.765625 0 Z M 7.96875 -4.859375 L 6.265625 -9.40625 L 6.21875 -9.40625 L 4.5 -4.859375 Z M 7.96875 -4.859375 "/></g></g></g><g fill="#0ca4a5" fill-opacity="1"><g transform="translate(134.957722, 270.983202)"><g><path d="M 9.3125 0 L 0.9375 0 C 0.800781 0 0.734375 -0.0625 0.734375 -0.1875 L 0.734375 -0.96875 C 0.734375 -1.082031 0.800781 -1.140625 0.9375 -1.140625 L 2.09375 -1.140625 L 2.09375 -9.84375 L 0.9375 -9.84375 C 0.800781 -9.84375 0.734375 -9.90625 0.734375 -10.03125 L 0.734375 -10.8125 C 0.734375 -10.9375 0.800781 -11 0.9375 -11 L 4.59375 -11 C 4.726562 -11 4.796875 -10.929688 4.796875 -10.796875 L 4.796875 -10.046875 C 4.796875 -9.910156 4.726562 -9.84375 4.59375 -9.84375 L 3.4375 -9.84375 L 3.4375 -1.140625 L 8.296875 -1.140625 L 8.296875 -2.65625 C 8.296875 -2.769531 8.363281 -2.828125 8.5 -2.828125 L 9.328125 -2.828125 C 9.453125 -2.828125 9.515625 -2.769531 9.515625 -2.65625 L 9.515625 -0.203125 C 9.515625 -0.0664062 9.445312 0 9.3125 0 Z M 9.3125 0 "/></g></g></g><g fill="#0ca4a5" fill-opacity="1"><g transform="translate(145.983737, 270.983202)"><g><path d="M 7.65625 0 L 3.96875 0 C 3.84375 0 3.78125 -0.0625 3.78125 -0.1875 L 3.78125 -0.96875 C 3.78125 -1.082031 3.84375 -1.140625 3.96875 -1.140625 L 5.140625 -1.140625 L 5.140625 -4.421875 L 4.53125 -5.484375 C 3.207031 -7.835938 2.351562 -9.289062 1.96875 -9.84375 L 0.9375 -9.84375 C 0.800781 -9.84375 0.734375 -9.90625 0.734375 -10.03125 L 0.734375 -10.8125 C 0.734375 -10.9375 0.800781 -11 0.9375 -11 L 4.375 -11 C 4.5 -11 4.5625 -10.9375 4.5625 -10.8125 L 4.5625 -10.03125 C 4.5625 -9.90625 4.5 -9.84375 4.375 -9.84375 L 3.375 -9.84375 L 5.765625 -5.59375 L 5.859375 -5.59375 L 8.25 -9.84375 L 7.25 -9.84375 C 7.125 -9.84375 7.0625 -9.90625 7.0625 -10.03125 L 7.0625 -10.8125 C 7.0625 -10.9375 7.125 -11 7.25 -11 L 10.703125 -11 C 10.828125 -11 10.890625 -10.9375 10.890625 -10.8125 L 10.890625 -10.03125 C 10.890625 -9.90625 10.828125 -9.84375 10.703125 -9.84375 L 9.640625 -9.84375 C 9.140625 -9.113281 8.488281 -8.03125 7.6875 -6.59375 C 6.894531 -5.164062 6.492188 -4.445312 6.484375 -4.4375 L 6.484375 -1.140625 L 7.65625 -1.140625 C 7.78125 -1.140625 7.84375 -1.082031 7.84375 -0.96875 L 7.84375 -0.1875 C 7.84375 -0.0625 7.78125 0 7.65625 0 Z M 7.65625 0 "/></g></g></g><g fill="#0ca4a5" fill-opacity="1"><g transform="translate(158.372696, 270.983202)"><g><path d="M 1.796875 0 L 0.9375 0 C 0.800781 0 0.734375 -0.0625 0.734375 -0.1875 L 0.734375 -3.765625 C 0.734375 -3.898438 0.800781 -3.96875 0.9375 -3.96875 L 1.90625 -3.96875 C 2.019531 -3.96875 2.078125 -3.898438 2.078125 -3.765625 L 2.078125 -3.4375 C 2.078125 -3.25 2.191406 -2.992188 2.421875 -2.671875 C 2.660156 -2.347656 2.894531 -2.082031 3.125 -1.875 C 3.363281 -1.675781 3.679688 -1.503906 4.078125 -1.359375 C 4.472656 -1.210938 4.898438 -1.140625 5.359375 -1.140625 C 6.140625 -1.140625 6.753906 -1.300781 7.203125 -1.625 C 7.648438 -1.945312 7.875 -2.398438 7.875 -2.984375 C 7.875 -3.316406 7.75 -3.601562 7.5 -3.84375 C 7.25 -4.082031 6.921875 -4.273438 6.515625 -4.421875 C 6.117188 -4.566406 5.675781 -4.695312 5.1875 -4.8125 C 4.707031 -4.9375 4.222656 -5.078125 3.734375 -5.234375 C 3.253906 -5.398438 2.816406 -5.59375 2.421875 -5.8125 C 2.023438 -6.03125 1.703125 -6.332031 1.453125 -6.71875 C 1.203125 -7.113281 1.078125 -7.578125 1.078125 -8.109375 C 1.078125 -8.972656 1.398438 -9.6875 2.046875 -10.25 C 2.691406 -10.8125 3.5625 -11.09375 4.65625 -11.09375 C 6.03125 -11.09375 7.039062 -10.6875 7.6875 -9.875 L 7.65625 -10.828125 C 7.65625 -10.953125 7.722656 -11.015625 7.859375 -11.015625 L 8.71875 -11.015625 C 8.832031 -11.015625 8.890625 -10.953125 8.890625 -10.828125 L 8.890625 -7.484375 C 8.890625 -7.359375 8.832031 -7.296875 8.71875 -7.296875 L 7.75 -7.296875 C 7.625 -7.296875 7.5625 -7.359375 7.5625 -7.484375 L 7.5625 -7.921875 C 7.5625 -8.335938 7.328125 -8.757812 6.859375 -9.1875 C 6.390625 -9.613281 5.703125 -9.828125 4.796875 -9.828125 C 4.117188 -9.828125 3.570312 -9.664062 3.15625 -9.34375 C 2.75 -9.019531 2.546875 -8.609375 2.546875 -8.109375 C 2.546875 -7.753906 2.671875 -7.445312 2.921875 -7.1875 C 3.179688 -6.9375 3.515625 -6.734375 3.921875 -6.578125 C 4.328125 -6.429688 4.773438 -6.289062 5.265625 -6.15625 C 5.753906 -6.03125 6.242188 -5.890625 6.734375 -5.734375 C 7.222656 -5.585938 7.671875 -5.40625 8.078125 -5.1875 C 8.492188 -4.976562 8.828125 -4.6875 9.078125 -4.3125 C 9.335938 -3.9375 9.46875 -3.492188 9.46875 -2.984375 C 9.46875 -2.085938 9.144531 -1.347656 8.5 -0.765625 C 7.851562 -0.179688 6.894531 0.109375 5.625 0.109375 C 4.675781 0.109375 3.894531 -0.078125 3.28125 -0.453125 C 2.675781 -0.835938 2.234375 -1.25 1.953125 -1.6875 L 1.96875 -0.1875 C 1.96875 -0.0625 1.910156 0 1.796875 0 Z M 1.796875 0 "/></g></g></g><g fill="#0ca4a5" fill-opacity="1"><g transform="translate(169.337451, 270.983202)"><g><path d="M 7.3125 0 L 3.75 0 C 3.613281 0 3.546875 -0.0664062 3.546875 -0.203125 L 3.546875 -0.953125 C 3.546875 -1.078125 3.613281 -1.140625 3.75 -1.140625 L 4.921875 -1.140625 L 4.921875 -9.84375 L 2.015625 -9.84375 L 2.015625 -8.21875 C 2.015625 -8.082031 1.945312 -8.015625 1.8125 -8.015625 L 0.953125 -8.015625 C 0.804688 -8.015625 0.734375 -8.082031 0.734375 -8.21875 L 0.734375 -10.796875 C 0.734375 -10.929688 0.804688 -11 0.953125 -11 L 10.1875 -11 C 10.320312 -11 10.390625 -10.929688 10.390625 -10.796875 L 10.390625 -8.21875 C 10.390625 -8.082031 10.320312 -8.015625 10.1875 -8.015625 L 9.3125 -8.015625 C 9.175781 -8.015625 9.109375 -8.082031 9.109375 -8.21875 L 9.109375 -9.84375 L 6.25 -9.84375 L 6.25 -1.140625 L 7.3125 -1.140625 C 7.457031 -1.140625 7.53125 -1.078125 7.53125 -0.953125 L 7.53125 -0.203125 C 7.53125 -0.0664062 7.457031 0 7.3125 0 Z M 7.3125 0 "/></g></g></g></svg>
