<svg xmlns="http://www.w3.org/2000/svg" xmlns:xlink="http://www.w3.org/1999/xlink" width="1500" zoomAndPan="magnify" viewBox="0 0 1125 374.999991" height="500" preserveAspectRatio="xMidYMid meet" version="1.0"><defs><g/></defs><g fill="#0ca4a5" fill-opacity="1"><g transform="translate(275.450702, 204.982479)"><g><path d="M 36.6875 -75.734375 L 36.6875 0 L 8.875 0 L 8.875 -122.03125 L 36.6875 -122.03125 L 85.203125 -46.296875 L 85.5 -46.296875 L 85.5 -122.03125 L 113.3125 -122.03125 L 113.3125 0 L 85.5 0 L 36.984375 -75.734375 Z M 36.6875 -75.734375 "/></g></g></g><g fill="#0ca4a5" fill-opacity="1"><g transform="translate(390.231174, 204.982479)"><g><path d="M 11.375 -118.1875 C 14.4375 -121.25 18.085938 -122.78125 22.328125 -122.78125 C 26.578125 -122.78125 30.226562 -121.25 33.28125 -118.1875 C 36.34375 -115.132812 37.875 -111.484375 37.875 -107.234375 C 37.875 -102.992188 36.34375 -99.347656 33.28125 -96.296875 C 30.226562 -93.242188 26.578125 -91.71875 22.328125 -91.71875 C 18.085938 -91.71875 14.4375 -93.242188 11.375 -96.296875 C 8.320312 -99.347656 6.796875 -102.992188 6.796875 -107.234375 C 6.796875 -111.484375 8.320312 -115.132812 11.375 -118.1875 Z M 8.875 -75.890625 L 8.875 0 L 35.0625 0 L 35.0625 -75.890625 Z M 8.875 -75.890625 "/></g></g></g><g fill="#0ca4a5" fill-opacity="1"><g transform="translate(427.504724, 204.982479)"><g><path d="M 8.875 0 L 8.875 -75.890625 L 35.0625 -75.890625 L 35.0625 -64.9375 L 35.359375 -64.9375 C 35.554688 -65.332031 35.875 -65.820312 36.3125 -66.40625 C 36.757812 -67 37.722656 -68.035156 39.203125 -69.515625 C 40.679688 -70.992188 42.257812 -72.328125 43.9375 -73.515625 C 45.613281 -74.703125 47.78125 -75.765625 50.4375 -76.703125 C 53.101562 -77.640625 55.816406 -78.109375 58.578125 -78.109375 C 61.429688 -78.109375 64.238281 -77.710938 67 -76.921875 C 69.769531 -76.128906 71.796875 -75.335938 73.078125 -74.546875 L 75.140625 -73.375 L 64.203125 -51.1875 C 60.941406 -53.945312 56.40625 -55.328125 50.59375 -55.328125 C 47.4375 -55.328125 44.722656 -54.632812 42.453125 -53.25 C 40.179688 -51.875 38.578125 -50.195312 37.640625 -48.21875 C 36.703125 -46.25 36.035156 -44.570312 35.640625 -43.1875 C 35.253906 -41.8125 35.0625 -40.726562 35.0625 -39.9375 L 35.0625 0 Z M 8.875 0 "/></g></g></g><g fill="#0ca4a5" fill-opacity="1"><g transform="translate(493.769429, 204.982479)"><g/></g></g><g fill="#0ca4a5" fill-opacity="1"><g transform="translate(526.753495, 204.982479)"><g><path d="M 53.84375 -124.25 C 60.445312 -124.25 66.90625 -123.285156 73.21875 -121.359375 C 79.53125 -119.441406 84.21875 -117.546875 87.28125 -115.671875 L 91.71875 -112.71875 L 80.46875 -90.53125 C 79.582031 -91.125 78.347656 -91.882812 76.765625 -92.8125 C 75.191406 -93.75 72.234375 -95.003906 67.890625 -96.578125 C 63.554688 -98.160156 59.515625 -98.953125 55.765625 -98.953125 C 51.128906 -98.953125 47.550781 -97.96875 45.03125 -96 C 42.519531 -94.03125 41.265625 -91.367188 41.265625 -88.015625 C 41.265625 -86.335938 41.851562 -84.78125 43.03125 -83.34375 C 44.21875 -81.914062 46.242188 -80.390625 49.109375 -78.765625 C 51.972656 -77.140625 54.488281 -75.832031 56.65625 -74.84375 C 58.820312 -73.863281 62.175781 -72.382812 66.71875 -70.40625 C 74.601562 -67.050781 81.332031 -62.488281 86.90625 -56.71875 C 92.476562 -50.957031 95.265625 -44.425781 95.265625 -37.125 C 95.265625 -30.125 94.003906 -24.007812 91.484375 -18.78125 C 88.972656 -13.5625 85.519531 -9.472656 81.125 -6.515625 C 76.738281 -3.554688 71.882812 -1.363281 66.5625 0.0625 C 61.238281 1.5 55.472656 2.21875 49.265625 2.21875 C 43.929688 2.21875 38.703125 1.675781 33.578125 0.59375 C 28.453125 -0.488281 24.160156 -1.84375 20.703125 -3.46875 C 17.253906 -5.101562 14.148438 -6.707031 11.390625 -8.28125 C 8.628906 -9.863281 6.609375 -11.195312 5.328125 -12.28125 L 3.40625 -13.90625 L 17.3125 -37.28125 C 18.488281 -36.289062 20.113281 -35.03125 22.1875 -33.5 C 24.257812 -31.976562 27.929688 -29.929688 33.203125 -27.359375 C 38.484375 -24.796875 43.144531 -23.515625 47.1875 -23.515625 C 58.925781 -23.515625 64.796875 -27.507812 64.796875 -35.5 C 64.796875 -37.175781 64.375 -38.726562 63.53125 -40.15625 C 62.695312 -41.59375 61.21875 -43.023438 59.09375 -44.453125 C 56.976562 -45.878906 55.101562 -47.007812 53.46875 -47.84375 C 51.84375 -48.6875 49.179688 -49.96875 45.484375 -51.6875 C 41.785156 -53.414062 39.050781 -54.726562 37.28125 -55.625 C 29.882812 -59.269531 24.160156 -63.828125 20.109375 -69.296875 C 16.066406 -74.773438 14.046875 -80.671875 14.046875 -86.984375 C 14.046875 -97.921875 18.085938 -106.863281 26.171875 -113.8125 C 34.265625 -120.769531 43.488281 -124.25 53.84375 -124.25 Z M 53.84375 -124.25 "/></g></g></g><g fill="#0ca4a5" fill-opacity="1"><g transform="translate(618.755237, 204.982479)"><g><path d="M 8.875 0 L 8.875 -75.890625 L 35.0625 -75.890625 L 35.0625 -64.9375 L 35.359375 -64.9375 C 35.554688 -65.332031 35.875 -65.820312 36.3125 -66.40625 C 36.757812 -67 37.722656 -68.035156 39.203125 -69.515625 C 40.679688 -70.992188 42.257812 -72.328125 43.9375 -73.515625 C 45.613281 -74.703125 47.78125 -75.765625 50.4375 -76.703125 C 53.101562 -77.640625 55.816406 -78.109375 58.578125 -78.109375 C 61.429688 -78.109375 64.238281 -77.710938 67 -76.921875 C 69.769531 -76.128906 71.796875 -75.335938 73.078125 -74.546875 L 75.140625 -73.375 L 64.203125 -51.1875 C 60.941406 -53.945312 56.40625 -55.328125 50.59375 -55.328125 C 47.4375 -55.328125 44.722656 -54.632812 42.453125 -53.25 C 40.179688 -51.875 38.578125 -50.195312 37.640625 -48.21875 C 36.703125 -46.25 36.035156 -44.570312 35.640625 -43.1875 C 35.253906 -41.8125 35.0625 -40.726562 35.0625 -39.9375 L 35.0625 0 Z M 8.875 0 "/></g></g></g><g fill="#0ca4a5" fill-opacity="1"><g transform="translate(685.019953, 204.982479)"><g><path d="M 16.046875 -9.015625 C 7.617188 -16.515625 3.40625 -26.128906 3.40625 -37.859375 C 3.40625 -49.597656 7.789062 -59.238281 16.5625 -66.78125 C 25.34375 -74.332031 36.191406 -78.109375 49.109375 -78.109375 C 61.828125 -78.109375 72.550781 -74.3125 81.28125 -66.71875 C 90.007812 -59.125 94.375 -49.503906 94.375 -37.859375 C 94.375 -26.222656 90.109375 -16.632812 81.578125 -9.09375 C 73.046875 -1.550781 62.222656 2.21875 49.109375 2.21875 C 35.503906 2.21875 24.484375 -1.523438 16.046875 -9.015625 Z M 36.3125 -50.734375 C 32.914062 -47.378906 31.21875 -43.085938 31.21875 -37.859375 C 31.21875 -32.640625 32.84375 -28.378906 36.09375 -25.078125 C 39.34375 -21.773438 43.632812 -20.125 48.96875 -20.125 C 54.09375 -20.125 58.304688 -21.796875 61.609375 -25.140625 C 64.910156 -28.492188 66.5625 -32.738281 66.5625 -37.875 C 66.5625 -43.09375 64.859375 -47.378906 61.453125 -50.734375 C 58.054688 -54.085938 53.894531 -55.765625 48.96875 -55.765625 C 43.9375 -55.765625 39.71875 -54.085938 36.3125 -50.734375 Z M 36.3125 -50.734375 "/></g></g></g><g fill="#0ca4a5" fill-opacity="1"><g transform="translate(775.394621, 204.982479)"><g><path d="M 33.578125 -75.890625 L 33.578125 -39.796875 C 33.578125 -32.296875 34.707031 -26.96875 36.96875 -23.8125 C 39.238281 -20.65625 43.085938 -19.078125 48.515625 -19.078125 C 53.941406 -19.078125 57.785156 -20.65625 60.046875 -23.8125 C 62.316406 -26.96875 63.453125 -32.296875 63.453125 -39.796875 L 63.453125 -75.890625 L 89.640625 -75.890625 L 89.640625 -33.4375 C 89.640625 -20.8125 86.359375 -11.710938 79.796875 -6.140625 C 73.242188 -0.566406 62.816406 2.21875 48.515625 2.21875 C 34.210938 2.21875 23.78125 -0.566406 17.21875 -6.140625 C 10.664062 -11.710938 7.390625 -20.8125 7.390625 -33.4375 L 7.390625 -75.890625 Z M 33.578125 -75.890625 "/></g></g></g><g fill="#0ca4a5" fill-opacity="1"><g transform="translate(865.029726, 204.982479)"><g><path d="M 8.875 0 L 8.875 -75.890625 L 35.0625 -75.890625 L 35.0625 -64.9375 L 35.359375 -64.9375 C 35.554688 -65.332031 35.875 -65.820312 36.3125 -66.40625 C 36.757812 -67 37.722656 -68.035156 39.203125 -69.515625 C 40.679688 -70.992188 42.257812 -72.328125 43.9375 -73.515625 C 45.613281 -74.703125 47.78125 -75.765625 50.4375 -76.703125 C 53.101562 -77.640625 55.816406 -78.109375 58.578125 -78.109375 C 61.429688 -78.109375 64.238281 -77.710938 67 -76.921875 C 69.769531 -76.128906 71.796875 -75.335938 73.078125 -74.546875 L 75.140625 -73.375 L 64.203125 -51.1875 C 60.941406 -53.945312 56.40625 -55.328125 50.59375 -55.328125 C 47.4375 -55.328125 44.722656 -54.632812 42.453125 -53.25 C 40.179688 -51.875 38.578125 -50.195312 37.640625 -48.21875 C 36.703125 -46.25 36.035156 -44.570312 35.640625 -43.1875 C 35.253906 -41.8125 35.0625 -40.726562 35.0625 -39.9375 L 35.0625 0 Z M 8.875 0 "/></g></g></g><g fill="#0ca4a5" fill-opacity="1"><g transform="translate(419.627712, 291.399087)"><g><path d="M 10.46875 0 L 1.6875 0 C 1.4375 0 1.3125 -0.125 1.3125 -0.375 L 1.3125 -1.921875 C 1.3125 -2.171875 1.4375 -2.296875 1.6875 -2.296875 L 4.046875 -2.296875 L 4.046875 -19.6875 L 1.6875 -19.6875 C 1.4375 -19.6875 1.3125 -19.804688 1.3125 -20.046875 L 1.3125 -21.609375 C 1.3125 -21.859375 1.4375 -21.984375 1.6875 -21.984375 L 9.953125 -21.984375 C 13.335938 -21.984375 16.03125 -21.003906 18.03125 -19.046875 C 20.03125 -17.097656 21.03125 -14.421875 21.03125 -11.015625 C 21.03125 -7.609375 20.078125 -4.921875 18.171875 -2.953125 C 16.273438 -0.984375 13.707031 0 10.46875 0 Z M 6.703125 -2.296875 L 9.734375 -2.296875 C 15.410156 -2.335938 18.25 -5.222656 18.25 -10.953125 C 18.25 -13.710938 17.515625 -15.859375 16.046875 -17.390625 C 14.585938 -18.921875 12.453125 -19.6875 9.640625 -19.6875 L 6.703125 -19.6875 Z M 6.703125 -2.296875 "/></g></g></g><g fill="#0ca4a5" fill-opacity="1"><g transform="translate(443.806158, 291.399087)"><g><path d="M 23.515625 0 L 16.59375 0 C 16.34375 0 16.21875 -0.125 16.21875 -0.375 L 16.21875 -1.921875 C 16.21875 -2.171875 16.34375 -2.296875 16.59375 -2.296875 L 18.734375 -2.296875 L 16.75 -7.59375 L 8.203125 -7.59375 L 6.21875 -2.296875 L 8.359375 -2.296875 C 8.597656 -2.296875 8.71875 -2.171875 8.71875 -1.921875 L 8.71875 -0.375 C 8.71875 -0.125 8.597656 0 8.359375 0 L 1.46875 0 C 1.226562 0 1.109375 -0.125 1.109375 -0.375 L 1.109375 -1.921875 C 1.109375 -2.171875 1.226562 -2.296875 1.46875 -2.296875 L 3.515625 -2.296875 L 10.09375 -19.6875 L 8.453125 -19.6875 C 8.179688 -19.6875 8.046875 -19.804688 8.046875 -20.046875 L 8.046875 -21.609375 C 8.046875 -21.859375 8.179688 -21.984375 8.453125 -21.984375 L 12.609375 -21.984375 C 13.097656 -21.984375 13.46875 -21.878906 13.71875 -21.671875 C 13.976562 -21.460938 14.203125 -21.125 14.390625 -20.65625 L 21.421875 -2.296875 L 23.515625 -2.296875 C 23.753906 -2.296875 23.875 -2.171875 23.875 -1.921875 L 23.875 -0.375 C 23.875 -0.125 23.753906 0 23.515625 0 Z M 15.921875 -9.703125 L 12.515625 -18.796875 L 12.421875 -18.796875 L 9 -9.703125 Z M 15.921875 -9.703125 "/></g></g></g><g fill="#0ca4a5" fill-opacity="1"><g transform="translate(471.07576, 291.399087)"><g><path d="M 14.625 0 L 7.5 0 C 7.226562 0 7.09375 -0.128906 7.09375 -0.390625 L 7.09375 -1.890625 C 7.09375 -2.160156 7.226562 -2.296875 7.5 -2.296875 L 9.828125 -2.296875 L 9.828125 -19.6875 L 4.046875 -19.6875 L 4.046875 -16.4375 C 4.046875 -16.15625 3.898438 -16.015625 3.609375 -16.015625 L 1.890625 -16.015625 C 1.609375 -16.015625 1.46875 -16.15625 1.46875 -16.4375 L 1.46875 -21.578125 C 1.46875 -21.847656 1.609375 -21.984375 1.890625 -21.984375 L 20.359375 -21.984375 C 20.640625 -21.984375 20.78125 -21.847656 20.78125 -21.578125 L 20.78125 -16.4375 C 20.78125 -16.15625 20.640625 -16.015625 20.359375 -16.015625 L 18.609375 -16.015625 C 18.347656 -16.015625 18.21875 -16.15625 18.21875 -16.4375 L 18.21875 -19.6875 L 12.484375 -19.6875 L 12.484375 -2.296875 L 14.625 -2.296875 C 14.914062 -2.296875 15.0625 -2.160156 15.0625 -1.890625 L 15.0625 -0.390625 C 15.0625 -0.128906 14.914062 0 14.625 0 Z M 14.625 0 "/></g></g></g><g fill="#0ca4a5" fill-opacity="1"><g transform="translate(494.856332, 291.399087)"><g><path d="M 23.515625 0 L 16.59375 0 C 16.34375 0 16.21875 -0.125 16.21875 -0.375 L 16.21875 -1.921875 C 16.21875 -2.171875 16.34375 -2.296875 16.59375 -2.296875 L 18.734375 -2.296875 L 16.75 -7.59375 L 8.203125 -7.59375 L 6.21875 -2.296875 L 8.359375 -2.296875 C 8.597656 -2.296875 8.71875 -2.171875 8.71875 -1.921875 L 8.71875 -0.375 C 8.71875 -0.125 8.597656 0 8.359375 0 L 1.46875 0 C 1.226562 0 1.109375 -0.125 1.109375 -0.375 L 1.109375 -1.921875 C 1.109375 -2.171875 1.226562 -2.296875 1.46875 -2.296875 L 3.515625 -2.296875 L 10.09375 -19.6875 L 8.453125 -19.6875 C 8.179688 -19.6875 8.046875 -19.804688 8.046875 -20.046875 L 8.046875 -21.609375 C 8.046875 -21.859375 8.179688 -21.984375 8.453125 -21.984375 L 12.609375 -21.984375 C 13.097656 -21.984375 13.46875 -21.878906 13.71875 -21.671875 C 13.976562 -21.460938 14.203125 -21.125 14.390625 -20.65625 L 21.421875 -2.296875 L 23.515625 -2.296875 C 23.753906 -2.296875 23.875 -2.171875 23.875 -1.921875 L 23.875 -0.375 C 23.875 -0.125 23.753906 0 23.515625 0 Z M 15.921875 -9.703125 L 12.515625 -18.796875 L 12.421875 -18.796875 L 9 -9.703125 Z M 15.921875 -9.703125 "/></g></g></g><g fill="#0ca4a5" fill-opacity="1"><g transform="translate(522.125933, 291.399087)"><g/></g></g><g fill="#0ca4a5" fill-opacity="1"><g transform="translate(533.235828, 291.399087)"><g><path d="M 23.515625 0 L 16.59375 0 C 16.34375 0 16.21875 -0.125 16.21875 -0.375 L 16.21875 -1.921875 C 16.21875 -2.171875 16.34375 -2.296875 16.59375 -2.296875 L 18.734375 -2.296875 L 16.75 -7.59375 L 8.203125 -7.59375 L 6.21875 -2.296875 L 8.359375 -2.296875 C 8.597656 -2.296875 8.71875 -2.171875 8.71875 -1.921875 L 8.71875 -0.375 C 8.71875 -0.125 8.597656 0 8.359375 0 L 1.46875 0 C 1.226562 0 1.109375 -0.125 1.109375 -0.375 L 1.109375 -1.921875 C 1.109375 -2.171875 1.226562 -2.296875 1.46875 -2.296875 L 3.515625 -2.296875 L 10.09375 -19.6875 L 8.453125 -19.6875 C 8.179688 -19.6875 8.046875 -19.804688 8.046875 -20.046875 L 8.046875 -21.609375 C 8.046875 -21.859375 8.179688 -21.984375 8.453125 -21.984375 L 12.609375 -21.984375 C 13.097656 -21.984375 13.46875 -21.878906 13.71875 -21.671875 C 13.976562 -21.460938 14.203125 -21.125 14.390625 -20.65625 L 21.421875 -2.296875 L 23.515625 -2.296875 C 23.753906 -2.296875 23.875 -2.171875 23.875 -1.921875 L 23.875 -0.375 C 23.875 -0.125 23.753906 0 23.515625 0 Z M 15.921875 -9.703125 L 12.515625 -18.796875 L 12.421875 -18.796875 L 9 -9.703125 Z M 15.921875 -9.703125 "/></g></g></g><g fill="#0ca4a5" fill-opacity="1"><g transform="translate(560.505428, 291.399087)"><g><path d="M 20.515625 0 L 18.859375 0 C 18.472656 0 18.164062 -0.0703125 17.9375 -0.21875 C 17.707031 -0.375 17.492188 -0.617188 17.296875 -0.953125 L 8.453125 -14.78125 L 6.921875 -17.359375 L 6.859375 -17.359375 L 6.859375 -2.296875 L 9.21875 -2.296875 C 9.476562 -2.296875 9.609375 -2.171875 9.609375 -1.921875 L 9.609375 -0.375 C 9.609375 -0.125 9.476562 0 9.21875 0 L 1.859375 0 C 1.597656 0 1.46875 -0.125 1.46875 -0.375 L 1.46875 -1.921875 C 1.46875 -2.171875 1.597656 -2.296875 1.859375 -2.296875 L 4.1875 -2.296875 L 4.1875 -19.6875 L 1.859375 -19.6875 C 1.597656 -19.6875 1.46875 -19.804688 1.46875 -20.046875 L 1.46875 -21.609375 C 1.46875 -21.859375 1.597656 -21.984375 1.859375 -21.984375 L 6.15625 -21.984375 C 6.75 -21.984375 7.269531 -21.632812 7.71875 -20.9375 L 16.4375 -7.28125 L 18.1875 -4.3125 L 18.25 -4.3125 L 18.25 -19.6875 L 15.890625 -19.6875 C 15.640625 -19.6875 15.515625 -19.804688 15.515625 -20.046875 L 15.515625 -21.609375 C 15.515625 -21.859375 15.640625 -21.984375 15.890625 -21.984375 L 23.265625 -21.984375 C 23.503906 -21.984375 23.625 -21.859375 23.625 -21.609375 L 23.625 -20.046875 C 23.625 -19.804688 23.503906 -19.6875 23.265625 -19.6875 L 20.90625 -19.6875 L 20.90625 -0.375 C 20.90625 -0.125 20.773438 0 20.515625 0 Z M 20.515625 0 "/></g></g></g><g fill="#0ca4a5" fill-opacity="1"><g transform="translate(587.132312, 291.399087)"><g><path d="M 23.515625 0 L 16.59375 0 C 16.34375 0 16.21875 -0.125 16.21875 -0.375 L 16.21875 -1.921875 C 16.21875 -2.171875 16.34375 -2.296875 16.59375 -2.296875 L 18.734375 -2.296875 L 16.75 -7.59375 L 8.203125 -7.59375 L 6.21875 -2.296875 L 8.359375 -2.296875 C 8.597656 -2.296875 8.71875 -2.171875 8.71875 -1.921875 L 8.71875 -0.375 C 8.71875 -0.125 8.597656 0 8.359375 0 L 1.46875 0 C 1.226562 0 1.109375 -0.125 1.109375 -0.375 L 1.109375 -1.921875 C 1.109375 -2.171875 1.226562 -2.296875 1.46875 -2.296875 L 3.515625 -2.296875 L 10.09375 -19.6875 L 8.453125 -19.6875 C 8.179688 -19.6875 8.046875 -19.804688 8.046875 -20.046875 L 8.046875 -21.609375 C 8.046875 -21.859375 8.179688 -21.984375 8.453125 -21.984375 L 12.609375 -21.984375 C 13.097656 -21.984375 13.46875 -21.878906 13.71875 -21.671875 C 13.976562 -21.460938 14.203125 -21.125 14.390625 -20.65625 L 21.421875 -2.296875 L 23.515625 -2.296875 C 23.753906 -2.296875 23.875 -2.171875 23.875 -1.921875 L 23.875 -0.375 C 23.875 -0.125 23.753906 0 23.515625 0 Z M 15.921875 -9.703125 L 12.515625 -18.796875 L 12.421875 -18.796875 L 9 -9.703125 Z M 15.921875 -9.703125 "/></g></g></g><g fill="#0ca4a5" fill-opacity="1"><g transform="translate(614.40192, 291.399087)"><g><path d="M 18.609375 0 L 1.859375 0 C 1.597656 0 1.46875 -0.125 1.46875 -0.375 L 1.46875 -1.921875 C 1.46875 -2.171875 1.597656 -2.296875 1.859375 -2.296875 L 4.1875 -2.296875 L 4.1875 -19.6875 L 1.859375 -19.6875 C 1.597656 -19.6875 1.46875 -19.804688 1.46875 -20.046875 L 1.46875 -21.609375 C 1.46875 -21.859375 1.597656 -21.984375 1.859375 -21.984375 L 9.1875 -21.984375 C 9.445312 -21.984375 9.578125 -21.847656 9.578125 -21.578125 L 9.578125 -20.078125 C 9.578125 -19.816406 9.445312 -19.6875 9.1875 -19.6875 L 6.859375 -19.6875 L 6.859375 -2.296875 L 16.59375 -2.296875 L 16.59375 -5.296875 C 16.59375 -5.535156 16.722656 -5.65625 16.984375 -5.65625 L 18.640625 -5.65625 C 18.890625 -5.65625 19.015625 -5.535156 19.015625 -5.296875 L 19.015625 -0.390625 C 19.015625 -0.128906 18.878906 0 18.609375 0 Z M 18.609375 0 "/></g></g></g><g fill="#0ca4a5" fill-opacity="1"><g transform="translate(636.43798, 291.399087)"><g><path d="M 15.296875 0 L 7.921875 0 C 7.679688 0 7.5625 -0.125 7.5625 -0.375 L 7.5625 -1.921875 C 7.5625 -2.171875 7.679688 -2.296875 7.921875 -2.296875 L 10.28125 -2.296875 L 10.28125 -8.84375 L 9.0625 -10.953125 C 6.40625 -15.671875 4.703125 -18.582031 3.953125 -19.6875 L 1.859375 -19.6875 C 1.597656 -19.6875 1.46875 -19.804688 1.46875 -20.046875 L 1.46875 -21.609375 C 1.46875 -21.859375 1.597656 -21.984375 1.859375 -21.984375 L 8.75 -21.984375 C 9 -21.984375 9.125 -21.859375 9.125 -21.609375 L 9.125 -20.046875 C 9.125 -19.804688 9 -19.6875 8.75 -19.6875 L 6.734375 -19.6875 L 11.546875 -11.171875 L 11.71875 -11.171875 L 16.5 -19.6875 L 14.484375 -19.6875 C 14.234375 -19.6875 14.109375 -19.804688 14.109375 -20.046875 L 14.109375 -21.609375 C 14.109375 -21.859375 14.234375 -21.984375 14.484375 -21.984375 L 21.390625 -21.984375 C 21.640625 -21.984375 21.765625 -21.859375 21.765625 -21.609375 L 21.765625 -20.046875 C 21.765625 -19.804688 21.640625 -19.6875 21.390625 -19.6875 L 19.28125 -19.6875 C 18.28125 -18.21875 16.976562 -16.050781 15.375 -13.1875 C 13.78125 -10.332031 12.972656 -8.894531 12.953125 -8.875 L 12.953125 -2.296875 L 15.296875 -2.296875 C 15.546875 -2.296875 15.671875 -2.171875 15.671875 -1.921875 L 15.671875 -0.375 C 15.671875 -0.125 15.546875 0 15.296875 0 Z M 15.296875 0 "/></g></g></g><g fill="#0ca4a5" fill-opacity="1"><g transform="translate(661.197932, 291.399087)"><g><path d="M 3.578125 0 L 1.859375 0 C 1.597656 0 1.46875 -0.125 1.46875 -0.375 L 1.46875 -7.53125 C 1.46875 -7.789062 1.597656 -7.921875 1.859375 -7.921875 L 3.796875 -7.921875 C 4.035156 -7.921875 4.15625 -7.789062 4.15625 -7.53125 L 4.15625 -6.890625 C 4.15625 -6.503906 4.390625 -5.988281 4.859375 -5.34375 C 5.335938 -4.695312 5.8125 -4.171875 6.28125 -3.765625 C 6.75 -3.359375 7.375 -3.003906 8.15625 -2.703125 C 8.9375 -2.410156 9.789062 -2.265625 10.71875 -2.265625 C 12.28125 -2.265625 13.503906 -2.585938 14.390625 -3.234375 C 15.285156 -3.890625 15.734375 -4.800781 15.734375 -5.96875 C 15.734375 -6.644531 15.484375 -7.222656 14.984375 -7.703125 C 14.484375 -8.179688 13.832031 -8.5625 13.03125 -8.84375 C 12.238281 -9.132812 11.359375 -9.398438 10.390625 -9.640625 C 9.421875 -9.890625 8.453125 -10.171875 7.484375 -10.484375 C 6.515625 -10.796875 5.628906 -11.171875 4.828125 -11.609375 C 4.035156 -12.054688 3.390625 -12.671875 2.890625 -13.453125 C 2.390625 -14.234375 2.140625 -15.15625 2.140625 -16.21875 C 2.140625 -17.9375 2.785156 -19.351562 4.078125 -20.46875 C 5.378906 -21.59375 7.125 -22.15625 9.3125 -22.15625 C 12.0625 -22.15625 14.078125 -21.351562 15.359375 -19.75 L 15.296875 -21.640625 C 15.296875 -21.890625 15.429688 -22.015625 15.703125 -22.015625 L 17.421875 -22.015625 C 17.660156 -22.015625 17.78125 -21.890625 17.78125 -21.640625 L 17.78125 -14.96875 C 17.78125 -14.71875 17.660156 -14.59375 17.421875 -14.59375 L 15.484375 -14.59375 C 15.242188 -14.59375 15.125 -14.71875 15.125 -14.96875 L 15.125 -15.828125 C 15.125 -16.660156 14.65625 -17.503906 13.71875 -18.359375 C 12.78125 -19.222656 11.398438 -19.65625 9.578125 -19.65625 C 8.234375 -19.65625 7.144531 -19.332031 6.3125 -18.6875 C 5.488281 -18.039062 5.078125 -17.21875 5.078125 -16.21875 C 5.078125 -15.507812 5.332031 -14.898438 5.84375 -14.390625 C 6.351562 -13.878906 7.015625 -13.46875 7.828125 -13.15625 C 8.648438 -12.851562 9.550781 -12.570312 10.53125 -12.3125 C 11.507812 -12.0625 12.488281 -11.78125 13.46875 -11.46875 C 14.445312 -11.164062 15.34375 -10.800781 16.15625 -10.375 C 16.976562 -9.945312 17.644531 -9.359375 18.15625 -8.609375 C 18.664062 -7.867188 18.921875 -6.988281 18.921875 -5.96875 C 18.921875 -4.175781 18.273438 -2.695312 16.984375 -1.53125 C 15.703125 -0.363281 13.785156 0.21875 11.234375 0.21875 C 9.359375 0.21875 7.804688 -0.15625 6.578125 -0.90625 C 5.359375 -1.664062 4.472656 -2.484375 3.921875 -3.359375 L 3.953125 -0.375 C 3.953125 -0.125 3.828125 0 3.578125 0 Z M 3.578125 0 "/></g></g></g><g fill="#0ca4a5" fill-opacity="1"><g transform="translate(683.111575, 291.399087)"><g><path d="M 14.625 0 L 7.5 0 C 7.226562 0 7.09375 -0.128906 7.09375 -0.390625 L 7.09375 -1.890625 C 7.09375 -2.160156 7.226562 -2.296875 7.5 -2.296875 L 9.828125 -2.296875 L 9.828125 -19.6875 L 4.046875 -19.6875 L 4.046875 -16.4375 C 4.046875 -16.15625 3.898438 -16.015625 3.609375 -16.015625 L 1.890625 -16.015625 C 1.609375 -16.015625 1.46875 -16.15625 1.46875 -16.4375 L 1.46875 -21.578125 C 1.46875 -21.847656 1.609375 -21.984375 1.890625 -21.984375 L 20.359375 -21.984375 C 20.640625 -21.984375 20.78125 -21.847656 20.78125 -21.578125 L 20.78125 -16.4375 C 20.78125 -16.15625 20.640625 -16.015625 20.359375 -16.015625 L 18.609375 -16.015625 C 18.347656 -16.015625 18.21875 -16.15625 18.21875 -16.4375 L 18.21875 -19.6875 L 12.484375 -19.6875 L 12.484375 -2.296875 L 14.625 -2.296875 C 14.914062 -2.296875 15.0625 -2.160156 15.0625 -1.890625 L 15.0625 -0.390625 C 15.0625 -0.128906 14.914062 0 14.625 0 Z M 14.625 0 "/></g></g></g></svg>